#!OML:ASF H:\IndianDance\Patient Classification 1\Patient 1\Session 1\dancer.ASF
:FULLY-SPECIFIED
:DEGREES
2434
root -2.6018 17.9235 -4.09379 1621.37 -245.842 -186.356
lowerback 10.5674 2.156 -0.142652
upperback -7.10136 3.15163 1.34961
thorax -13.8803 1.61016 0.860047
lowerneck -17.4629 -9.45315 -3.22753
upperneck 20.9428 -12.2294 0.122085
head 9.70808 -5.88422 -1.0797
rclavicle 1.10325e-014 -2.48481e-014
rhumerus 32.9484 38.9925 5.85802
rradius 105.366
rwrist -66.9292
rhand 29.8518 5.04157
rfingers 7.12502
rthumb 53.5736 -14.0807
lclavicle 1.10325e-014 -2.48481e-014
lhumerus 16.4166 -41.8066 -20.6032
lradius 114.192
lwrist 25.047
lhand -1.48616 1.00928
lfingers 7.12502
lthumb 24.1662 -330.493
rfemur -48.5994 -23.5199 37.0668
rtibia 54.1778
rfoot 29.0936 4.49011
rtoes 22.0608
lfemur -27.9069 30.7345 -9.51632
ltibia 108.932
lfoot 10.9872 -13.5716
ltoes 6.87389
2435
root -2.59604 17.884 -3.92798 1620.45 -250.357 -187.064
lowerback 10.1994 2.16685 -0.137733
upperback -7.10921 3.17579 1.37855
thorax -13.6616 1.62836 0.896736
lowerneck -17.2788 -9.50595 -3.35378
upperneck 21.0066 -12.2768 0.160513
head 9.70952 -5.90849 -1.04671
rclavicle -1.29955e-014 -5.1684e-015
rhumerus 31.9728 38.8774 5.83618
rradius 106.628
rwrist -67.9925
rhand 31.7994 4.37504
rfingers 7.12502
rthumb 55.317 -13.5319
lclavicle -1.29955e-014 -5.1684e-015
lhumerus 16.4562 -42.0192 -20.4898
lradius 115.167
lwrist 25.2533
lhand -1.27975 0.969999
lfingers 7.12502
lthumb 24.364 -330.559
rfemur -44.4815 -21.8906 34.2994
rtibia 49.1126
rfoot 29.0445 3.33201
rtoes 21.8467
lfemur -27.6123 32.9502 -6.28037
ltibia 113.97
lfoot 10.1746 -15.5898
ltoes 5.5502
2436
root -2.57776 17.8284 -3.76111 1619.34 -254.899 -187.902
lowerback 9.77164 2.17121 -0.247722
upperback -7.09816 3.16781 1.37704
thorax -13.3879 1.64032 0.97397
lowerneck -17.0823 -9.54372 -3.45817
upperneck 21.0795 -12.3074 0.190692
head 9.70961 -5.92399 -1.01689
rclavicle 6.05051e-015 2.0276e-014
rhumerus 30.9713 38.796 5.69413
rradius 107.746
rwrist -69.125
rhand 33.7938 3.62755
rfingers 7.12502
rthumb 57.0816 -12.8903
lclavicle 6.05051e-015 2.0276e-014
lhumerus 16.4822 -42.2299 -20.3315
lradius 115.994
lwrist 25.4255
lhand -1.06673 1.04
lfingers 7.12502
lthumb 24.5682 -330.516
rfemur -40.3707 -19.7338 31.4775
rtibia 44.4951
rfoot 29.139 2.41414
rtoes 21.176
lfemur -26.7372 35.5065 -2.39458
ltibia 118.724
lfoot 9.32231 -17.8714
ltoes 4.38468
2437
root -2.54736 17.7557 -3.5945 1617.72 -259.473 -189.206
lowerback 9.30586 2.15913 -0.448665
upperback -7.08363 3.12093 1.3451
thorax -13.0895 1.64011 1.0783
lowerneck -16.8841 -9.56657 -3.52742
upperneck 21.2046 -12.3226 0.201066
head 9.72374 -5.93034 -0.998245
rclavicle 3.53837e-014 8.15017e-015
rhumerus 29.9624 38.7717 5.44883
rradius 108.736
rwrist -70.2354
rhand 35.7857 2.81826
rfingers 7.12502
rthumb 58.8195 -12.1443
lclavicle 3.53837e-014 8.15017e-015
lhumerus 16.513 -42.4408 -20.1862
lradius 116.699
lwrist 25.5727
lhand -0.795554 1.19468
lfingers 7.12502
lthumb 24.8282 -330.397
rfemur -36.3961 -17.1384 28.7697
rtibia 40.4242
rfoot 29.2893 1.83831
rtoes 19.4758
lfemur -25.134 38.3622 2.35868
ltibia 123.203
lfoot 8.37516 -20.2106
ltoes 3.64955
2438
root -2.50547 17.666 -3.42989 1614.31 -264.071 -192.28
lowerback 8.83507 2.12627 -0.712011
upperback -7.07259 3.03519 1.27686
thorax -12.7927 1.62424 1.18543
lowerneck -16.7581 -9.57214 -3.55038
upperneck 21.4525 -12.3201 0.187617
head 9.78928 -5.9232 -0.99972
rclavicle 3.96824e-014 2.38542e-014
rhumerus 28.9621 38.8037 5.10717
rradius 109.612
rwrist -71.2069
rhand 37.7169 1.95639
rfingers 7.12502
rthumb 60.4772 -11.3131
lclavicle 3.96824e-014 2.38542e-014
lhumerus 16.5555 -42.6416 -20.1044
lradius 117.31
lwrist 25.6592
lhand -0.500883 1.39862
lfingers 7.12502
lthumb 25.1105 -330.233
rfemur -32.6594 -14.2934 26.3359
rtibia 36.9875
rfoot 29.1691 1.27276
rtoes 17.091
lfemur -22.591 41.4082 8.20498
ltibia 127.397
lfoot 7.28885 -22.4106
ltoes 3.293
2439
root -2.45339 17.5604 -3.2692 1591 -268.57 -215.235
lowerback 8.39017 2.07207 -1.00818
upperback -7.0773 2.91533 1.16693
thorax -12.5286 1.59193 1.27017
lowerneck -16.7321 -9.57007 -3.54376
upperneck 21.838 -12.3137 0.174992
head 9.92032 -5.90632 -1.01457
rclavicle -2.06488e-014 -1.0138e-014
rhumerus 27.9752 38.8883 4.67363
rradius 110.384
rwrist -71.9039
rhand 39.4983 1.07554
rfingers 7.12502
rthumb 61.978 -10.4457
lclavicle -2.06488e-014 -1.0138e-014
lhumerus 16.6162 -42.8145 -20.1149
lradius 117.836
lwrist 25.6875
lhand -0.186825 1.61129
lfingers 7.12502
lthumb 25.4114 -330.062
rfemur -29.2555 -11.4996 24.321
rtibia 34.2482
rfoot 28.431 0.461272
rtoes 14.9781
lfemur -18.9303 44.4354 15.29
ltibia 131.271
lfoot 6.03948 -24.311
ltoes 3.7081
2440
root -2.39245 17.441 -3.11392 1632.61 -273.499 -173.283
lowerback 7.99003 1.99902 -1.29715
upperback -7.10235 2.77125 1.01854
thorax -12.3119 1.54492 1.31071
lowerneck -16.7962 -9.56256 -3.52287
upperneck 22.3414 -12.3059 0.178653
head 10.1112 -5.8802 -1.03444
rclavicle 2.95444e-014 1.25234e-014
rhumerus 27.0094 39.0071 4.15389
rradius 111.051
rwrist -72.2283
rhand 41.1982 0.224733
rfingers 7.12502
rthumb 63.3807 -9.43679
lclavicle 2.95444e-014 1.25234e-014
lhumerus 16.6835 -42.9377 -20.2135
lradius 118.285
lwrist 25.6585
lhand 0.173844 1.78368
lfingers 7.12502
lthumb 25.7569 -329.94
rfemur -26.2491 -9.06367 22.8335
rtibia 32.2264
rfoot 26.838 -0.737918
rtoes 12.9928
lfemur -14.1193 47.1543 23.5686
ltibia 134.766
lfoot 4.5592 -25.832
ltoes 4.59085
2441
root -2.32435 17.3116 -2.96553 1625.94 -278.123 -179.637
lowerback 7.65176 1.91091 -1.53326
upperback -7.15782 2.61517 0.840456
thorax -12.1631 1.48633 1.28789
lowerneck -16.9315 -9.55306 -3.51114
upperneck 22.9332 -12.2996 0.215578
head 10.3519 -5.84633 -1.04839
rclavicle -2.04748e-014 0
rhumerus 26.0756 39.1527 3.56343
rradius 111.619
rwrist -72.1242
rhand 42.7552 -0.582066
rfingers 7.12502
rthumb 64.636 -8.35354
lclavicle -2.04748e-014 0
lhumerus 16.7492 -43.0045 -20.3678
lradius 118.643
lwrist 25.5812
lhand 0.621815 1.86728
lfingers 7.12502
lthumb 26.1858 -329.919
rfemur -23.6648 -7.25923 21.9191
rtibia 30.8816
rfoot 24.2603 -2.33774
rtoes 11.1693
lfemur -8.45755 49.2591 32.5701
ltibia 137.796
lfoot 2.91696 -26.9775
ltoes 5.85941
2442
root -2.25016 17.1756 -2.82571 1624.21 -282.751 -181.059
lowerback 7.37631 1.81722 -1.69459
upperback -7.23498 2.46202 0.639844
thorax -12.073 1.42208 1.1948
lowerneck -17.0483 -9.54162 -3.48771
upperneck 23.4765 -12.2964 0.268359
head 10.5742 -5.81067 -1.05608
rclavicle 4.72114e-015 -1.98785e-015
rhumerus 25.1774 39.2993 2.92259
rradius 112.1
rwrist -71.6195
rhand 44.2051 -1.34362
rfingers 7.12502
rthumb 65.7756 -7.17391
lclavicle 4.72114e-015 -1.98785e-015
lhumerus 16.7862 -43.0076 -20.518
lradius 118.91
lwrist 25.4926
lhand 1.13924 1.92994
lfingers 7.12502
lthumb 26.6811 -329.931
rfemur -21.482 -6.22752 21.5198
rtibia 30.1145
rfoot 20.8138 -4.12342
rtoes 9.38317
lfemur -2.62615 50.6077 41.3295
ltibia 140.253
lfoot 1.299 -27.7662
ltoes 7.40747
2443
root -2.17254 17.035 -2.69499 1623.66 -287.329 -181.339
lowerback 7.16099 1.72689 -1.73937
upperback -7.3441 2.33135 0.439275
thorax -12.0523 1.35991 1.02912
lowerneck -17.0705 -9.52676 -3.45169
upperneck 23.906 -12.2882 0.3123
head 10.7369 -5.77586 -1.05865
rclavicle -2.4699e-014 -5.76476e-015
rhumerus 24.3289 39.4588 2.25368
rradius 112.486
rwrist -70.7718
rhand 45.5993 -2.06124
rfingers 7.12502
rthumb 66.8408 -5.8407
lclavicle -2.4699e-014 -5.76476e-015
lhumerus 16.7799 -42.9742 -20.6041
lradius 119.074
lwrist 25.4311
lhand 1.73338 1.92615
lfingers 7.12502
lthumb 27.2496 -330.022
rfemur -19.6898 -5.91445 21.5627
rtibia 29.797
rfoot 16.766 -5.9315
rtoes 7.2992
lfemur 2.53113 51.3846 48.8171
ltibia 142.071
lfoot -0.275347 -28.3855
ltoes 8.64583
2444
root -2.09305 16.892 -2.57404 1623.59 -291.825 -181.153
lowerback 7.00621 1.65202 -1.64989
upperback -7.47818 2.24211 0.253907
thorax -12.0943 1.3079 0.79444
lowerneck -16.9237 -9.51194 -3.3828
upperneck 24.1314 -12.275 0.308036
head 10.7867 -5.74978 -1.06594
rclavicle -1.50331e-015 -2.88238e-015
rhumerus 23.5285 39.632 1.57115
rradius 112.764
rwrist -69.6437
rhand 47.0613 -2.68979
rfingers 7.12502
rthumb 67.9206 -4.10273
lclavicle -1.50331e-015 -2.88238e-015
lhumerus 16.7214 -42.9213 -20.5608
lradius 119.121
lwrist 25.4207
lhand 2.36875 1.89292
lfingers 7.12502
lthumb 27.8572 -330.153
rfemur -18.2311 -6.16544 21.9255
rtibia 29.793
rfoot 12.4821 -7.63668
rtoes 4.74045
lfemur 6.37401 51.917 54.2135
ltibia 143.176
lfoot -1.62044 -28.9849
ltoes 9.41228
2445
root -2.01438 16.7488 -2.4631 1623.79 -296.22 -180.705
lowerback 6.88406 1.60018 -1.40812
upperback -7.63108 2.20847 0.0998643
thorax -12.1755 1.27169 0.496901
lowerneck -16.6224 -9.49467 -3.24845
upperneck 24.1533 -12.2457 0.194987
head 10.7187 -5.73291 -1.10313
rclavicle -3.84586e-014 -9.24349e-015
rhumerus 22.7719 39.8218 0.90054
rradius 112.963
rwrist -68.3726
rhand 48.4623 -3.37085
rfingers 7.12502
rthumb 68.9143 -2.28639
lclavicle -3.84586e-014 -9.24349e-015
lhumerus 16.6056 -42.8656 -20.3429
lradius 119.059
lwrist 25.4896
lhand 3.04881 1.8495
lfingers 7.12502
lthumb 28.5072 -330.303
rfemur -17.0753 -6.77734 22.5051
rtibia 29.9892
rfoot 8.32092 -9.21446
rtoes 1.83598
lfemur 8.47776 52.5808 57.0219
ltibia 143.545
lfoot -2.7046 -29.596
ltoes 9.37896
2446
root -1.93836 16.6063 -2.36161 1624.19 -300.49 -180.047
lowerback 6.771 1.57762 -1.00025
upperback -7.78686 2.24301 0.00380418
thorax -12.2634 1.25661 0.156891
lowerneck -16.2304 -9.47164 -3.05081
upperneck 24.016 -12.188 -0.0533399
head 10.56 -5.72114 -1.18191
rclavicle 8.90245e-014 3.48867e-014
rhumerus 22.0769 40.024 0.274092
rradius 113.083
rwrist -67.0261
rhand 49.849 -4.10018
rfingers 7.12502
rthumb 69.8525 -0.300141
lclavicle 8.90245e-014 3.48867e-014
lhumerus 16.402 -42.822 -19.8964
lradius 118.891
lwrist 25.6151
lhand 3.82988 1.77357
lfingers 7.12502
lthumb 29.2533 -330.507
rfemur -16.1231 -7.55654 23.2459
rtibia 30.1875
rfoot 4.6804 -10.5744
rtoes -0.886186
lfemur 8.72597 53.525 57.2452
ltibia 143.196
lfoot -3.41879 -30.1274
ltoes 8.81155
2447
root -1.86683 16.4657 -2.26867 1624.71 -304.625 -179.251
lowerback 6.64995 1.5905 -0.433587
upperback -7.94304 2.35405 -0.027979
thorax -12.3441 1.26734 -0.215141
lowerneck -15.812 -9.44612 -2.8181
upperneck 23.79 -12.104 -0.420669
head 10.3535 -5.71224 -1.29805
rclavicle -7.75384e-014 -1.90833e-014
rhumerus 21.4277 40.2511 -0.293934
rradius 113.151
rwrist -65.6743
rhand 51.1154 -4.95977
rfingers 7.12502
rthumb 70.6642 1.55002
lclavicle -7.75384e-014 -1.90833e-014
lhumerus 16.1123 -42.799 -19.2239
lradius 118.645
lwrist 25.7561
lhand 4.75028 1.7327
lfingers 7.12502
lthumb 30.1318 -330.704
rfemur -15.4183 -8.33578 24.0906
rtibia 30.4847
rfoot 1.57241 -11.6196
rtoes -3.3767
lfemur 7.0229 54.6821 54.9175
ltibia 142.18
lfoot -3.7036 -30.4185
ltoes 7.99432
